<?xml version="1.0" standalone="no"?>
<!DOCTYPE svg PUBLIC "-//W3C//DTD SVG 20010904//EN"
 "http://www.w3.org/TR/2001/REC-SVG-20010904/DTD/svg10.dtd">
<svg version="1.0" xmlns="http://www.w3.org/2000/svg"
 width="300.000000pt" height="265.000000pt" viewBox="0 0 300.000000 265.000000"
 preserveAspectRatio="xMidYMid meet">
<metadata>
Created by potrace 1.10, written by Peter Selinger 2001-2011
</metadata>
<g transform="translate(0.000000,265.000000) scale(0.100000,-0.100000)"
fill="#000000" stroke="none">
<path d="M1306 2618 c-45 -72 -226 -392 -226 -401 0 -13 68 -137 88 -159 14
-17 9 -18 -101 -18 -65 0 -117 -4 -117 -8 0 -4 -52 -97 -115 -206 -63 -109
-115 -202 -115 -208 0 -5 22 -48 49 -94 l50 -83 -112 -3 -112 -3 -117 -200
c-64 -110 -117 -205 -117 -212 -1 -6 19 -45 44 -87 l44 -75 -97 -3 -97 -3
-117 -204 c-65 -111 -118 -207 -118 -211 0 -4 53 -100 118 -211 l117 -204 247
-3 246 -2 41 75 c23 41 43 75 45 75 2 0 23 -34 47 -75 l43 -75 245 2 246 3 40
72 c22 40 42 73 45 72 3 0 24 -33 48 -74 l42 -75 245 0 244 0 42 75 c22 41 42
75 44 75 2 0 23 -34 46 -75 l43 -75 245 0 246 0 115 201 c63 110 116 206 118
213 2 11 -203 381 -230 413 -7 9 -38 13 -89 13 l-79 0 46 76 c24 42 43 80 42
83 -2 4 -57 101 -123 215 l-120 207 -92 -3 c-51 -2 -93 -2 -93 -1 0 1 23 40
50 87 28 47 50 89 50 94 0 5 -53 101 -118 213 l-118 204 -84 5 c-47 3 -80 8
-73 13 13 8 93 149 93 164 0 6 -53 102 -118 214 l-118 204 -242 3 c-241 2
-241 2 -256 -20z m560 -170 c48 -84 96 -165 106 -180 10 -14 18 -29 18 -32 0
-3 -93 -6 -208 -6 l-207 0 -107 185 -107 185 209 0 208 0 88 -152z m-431 -56
l100 -177 -100 -177 c-55 -97 -102 -177 -105 -177 -7 -1 -203 342 -203 355 0
13 195 354 203 354 3 0 50 -80 105 -178z m537 -224 c-11 -18 -32 -54 -47 -80
l-27 -48 -141 0 -142 0 -59 -103 -60 -104 -67 1 c-42 1 -65 5 -61 11 3 6 15
26 27 45 12 19 33 55 47 80 14 25 49 87 78 138 l54 92 209 0 209 0 -20 -32z
m-713 -273 l61 -104 75 -3 74 -3 -42 -73 -42 -72 -88 2 -89 3 -60 105 c-33 58
-80 138 -103 178 l-43 72 98 0 98 0 61 -105z m912 -57 c51 -90 99 -171 107
-181 15 -17 5 -17 -199 -15 l-214 3 -102 178 -102 177 209 0 209 0 92 -162z
m-1101 -33 c51 -88 96 -165 101 -171 6 -8 -26 -73 -93 -192 -57 -100 -105
-181 -108 -181 -3 0 -51 81 -107 179 l-103 180 49 83 c102 172 151 260 151
270 0 20 18 -8 110 -168z m660 -5 c50 -85 93 -163 96 -172 5 -16 -17 -58 -158
-301 l-40 -69 -32 54 c-18 29 -65 110 -104 179 l-73 127 103 181 c66 114 106
176 111 168 4 -7 48 -82 97 -167z m-310 -265 c20 -33 48 -80 62 -105 l26 -45
-43 -73 -43 -73 -206 -2 c-113 -1 -206 1 -206 4 0 4 36 69 81 145 44 77 90
156 100 177 l20 38 86 -3 86 -3 37 -60z m822 -15 l-47 -80 -126 0 -126 0 -59
-101 -59 -101 -83 -2 c-81 -1 -90 1 -73 19 8 9 53 86 177 303 l25 42 209 0
209 0 -47 -80z m-1343 -222 l56 -98 112 0 111 0 27 -47 c15 -27 36 -63 47 -80
l20 -33 -209 0 -210 0 -99 172 c-54 95 -100 177 -102 183 -2 6 31 8 95 5 l97
-5 55 -97z m1607 -78 c57 -96 103 -178 104 -183 0 -4 -93 -6 -207 -5 l-207 3
-103 179 c-57 98 -103 180 -103 182 0 3 93 3 207 2 l207 -3 102 -175z m-1789
-20 l101 -180 -101 -179 c-93 -164 -117 -199 -117 -171 0 5 -45 86 -99 180
l-99 170 99 171 c54 95 99 176 99 180 0 27 25 -10 117 -171z m1344 -11 l100
-174 -21 -35 c-11 -19 -31 -54 -42 -77 l-22 -43 -121 0 -120 0 -46 78 -45 77
89 155 c111 193 117 203 124 197 2 -3 49 -83 104 -178z m-488 81 l38 -70 95 0
c52 0 94 -2 94 -4 0 -3 -22 -43 -50 -91 -27 -48 -50 -88 -50 -91 0 -2 20 -37
45 -79 l44 -75 -99 0 -100 0 -42 -75 c-24 -41 -45 -74 -48 -74 -3 -1 -23 32
-45 72 l-40 72 -88 3 c-48 1 -87 5 -87 7 0 2 20 38 45 80 l44 75 -49 86 c-28
47 -50 87 -50 90 0 2 49 4 108 4 l108 0 40 70 c21 38 41 70 44 70 3 0 22 -32
43 -70z m-330 -318 c-16 -26 -62 -107 -103 -180 l-75 -131 -208 -1 c-115 0
-207 4 -205 8 2 5 47 86 102 180 l99 172 209 0 208 0 -27 -48z m1367 40 c0 -2
-17 -32 -37 -67 l-38 -65 -140 0 -140 0 -43 -76 c-24 -42 -47 -72 -51 -68 -5
5 -20 32 -35 60 l-27 51 49 84 50 84 206 0 c113 0 206 -1 206 -3z m-2075 -280
l60 -107 127 -3 126 -3 28 -47 c15 -26 34 -57 42 -69 l14 -23 -210 0 -209 0
-99 172 c-55 94 -100 175 -102 180 -2 4 34 8 80 8 l83 -1 60 -107z m941 -44
c47 -84 95 -165 106 -180 l19 -28 -210 0 -210 0 -45 75 -45 74 61 106 61 105
88 0 87 0 88 -152z m652 24 c40 -70 86 -151 103 -179 l31 -53 -209 0 -208 0
-79 138 c-44 75 -90 156 -104 180 l-24 42 209 0 208 0 73 -128z m697 -55 l104
-177 -211 2 -210 3 -60 105 c-33 58 -80 138 -104 178 l-43 72 211 -2 210 -3
103 -178z m-2522 111 c14 -29 60 -111 101 -181 l76 -129 -69 -116 c-37 -65
-83 -145 -102 -179 -31 -58 -49 -77 -49 -54 0 5 -45 86 -99 180 l-100 171 100
171 c54 94 99 175 99 180 0 23 18 5 43 -43z m1406 -486 c-56 -97 -103 -178
-104 -180 -2 -2 -21 27 -43 64 l-39 68 64 109 c74 127 75 109 -11 252 l-53 88
40 69 39 69 104 -181 104 -181 -101 -177z m667 351 l102 -177 -23 -35 c-12
-20 -59 -100 -105 -179 l-83 -144 -39 68 -39 67 66 113 65 113 -65 112 -65
111 37 69 c21 37 40 66 42 63 3 -3 51 -84 107 -181z m-1281 -86 c22 -39 41
-77 43 -83 1 -6 -43 -90 -99 -188 l-102 -178 -38 67 c-22 36 -39 68 -39 70 0
2 29 54 65 114 l64 111 -44 75 c-25 42 -45 78 -45 80 0 3 35 5 78 5 l77 0 40
-73z m-192 -155 c-16 -26 -62 -107 -103 -180 l-75 -131 -207 -1 c-115 0 -208
2 -208 4 0 2 36 66 81 142 44 77 90 156 100 177 l19 37 210 0 210 0 -27 -48z
m679 21 c-10 -16 -58 -97 -106 -181 l-88 -152 -208 0 -209 0 48 83 c26 45 74
126 105 180 l57 97 210 0 210 0 -19 -27z m646 -31 c-18 -32 -64 -113 -103
-180 l-70 -122 -208 0 -208 0 33 58 c18 32 65 113 103 180 l70 122 208 0 208
0 -33 -58z m598 -119 l-103 -178 -212 -3 -213 -2 19 27 c11 16 59 97 107 181
l88 152 208 0 208 0 -102 -177z"/>
</g>
</svg>
